<svg width="96" height="116" viewBox="0 0 96 116" fill="none" xmlns="http://www.w3.org/2000/svg">
  <defs>
    <linearGradient id="pinBody" x1="18" y1="16" x2="82" y2="102" gradientUnits="userSpaceOnUse">
      <stop stop-color="#38BDF8" />
      <stop offset="0.5" stop-color="#2563EB" />
      <stop offset="1" stop-color="#7C3AED" />
    </linearGradient>
    <linearGradient id="pinRim" x1="24" y1="24" x2="72" y2="90" gradientUnits="userSpaceOnUse">
      <stop stop-color="white" stop-opacity="0.92" />
      <stop offset="1" stop-color="white" stop-opacity="0.18" />
    </linearGradient>
    <radialGradient id="pinGloss" cx="0" cy="0" r="1" gradientUnits="userSpaceOnUse" gradientTransform="translate(40 30) rotate(34) scale(34 24)">
      <stop stop-color="white" stop-opacity="0.44" />
      <stop offset="1" stop-color="white" stop-opacity="0" />
    </radialGradient>
    <radialGradient id="innerGlow" cx="0" cy="0" r="1" gradientUnits="userSpaceOnUse" gradientTransform="translate(48 46) rotate(90) scale(28)">
      <stop stop-color="white" stop-opacity="0.92" />
      <stop offset="1" stop-color="#E0F2FE" stop-opacity="0.62" />
    </radialGradient>
    <filter id="pinShadow" x="7" y="10" width="82" height="102" filterUnits="userSpaceOnUse" color-interpolation-filters="sRGB">
      <feFlood flood-opacity="0" result="BackgroundImageFix" />
      <feColorMatrix in="SourceAlpha" type="matrix" values="0 0 0 0 0 0 0 0 0 0 0 0 0 0 0 0 0 0 127 0" result="hardAlpha" />
      <feOffset dy="8" />
      <feGaussianBlur stdDeviation="5.5" />
      <feComposite in2="hardAlpha" operator="out" />
      <feColorMatrix type="matrix" values="0 0 0 0 0.02 0 0 0 0 0.08 0 0 0 0 0.2 0 0 0 0.34 0" />
      <feBlend mode="normal" in2="BackgroundImageFix" result="effect1_dropShadow_1_1" />
      <feBlend mode="normal" in="SourceGraphic" in2="effect1_dropShadow_1_1" result="shape" />
    </filter>
  </defs>

  <ellipse cx="48" cy="106" rx="16" ry="4.5" fill="#020617" fill-opacity="0.24" />

  <g filter="url(#pinShadow)">
    <path
      d="M48 101C33 83 20 70.5 20 47C20 31.536 32.536 19 48 19C63.464 19 76 31.536 76 47C76 70.5 63 83 48 101Z"
      fill="url(#pinBody)"
    />
    <path
      d="M48 99.5C33.8 82.3 21.5 70.2 21.5 47C21.5 32.364 33.364 20.5 48 20.5C62.636 20.5 74.5 32.364 74.5 47C74.5 70.2 62.2 82.3 48 99.5Z"
      stroke="url(#pinRim)"
      stroke-width="1.4"
    />
  </g>

  <circle cx="48" cy="46" r="27.85" fill="url(#innerGlow)" />
  <circle cx="48" cy="46" r="27.1" stroke="white" stroke-opacity="0.94" stroke-width="1.8" />
  <circle cx="48" cy="46" r="25.1" fill="url(#pinGloss)" />
</svg>
